<svg viewBox="0 0 1024 1024" xmlns="http://www.w3.org/2000/svg" width="200" height="200"><path d="M160 357.376c-17.664 0-32-14.336-32-32V160h165.376c17.664 0 32 14.336 32 32s-14.336 32-32 32H192v101.376c0 17.664-14.336 32-32 32zM896 160v165.376c0 17.664-14.336 32-32 32s-32-14.336-32-32V224H730.624c-17.664 0-32-14.336-32-32s14.336-32 32-32H896zM896 864H730.624c-17.664 0-32-14.336-32-32s14.336-32 32-32H832V698.624c0-17.664 14.336-32 32-32s32 14.336 32 32V864zM160 896c-17.664 0-32-14.336-32-32V698.624c0-17.664 14.336-32 32-32s32 14.336 32 32V832h101.376c17.664 0 32 14.336 32 32s-14.336 32-32 32H160z" fill="currentColor"></path></svg>
