<svg viewBox="0 0 1024 1024" xmlns="http://www.w3.org/2000/svg" width="200" height="200"><path d="M394.624 394.624H224c-17.664 0-32-14.336-32-32s14.336-32 32-32h106.624V224c0-17.664 14.336-32 32-32s32 14.336 32 32v170.624c0 17.664-14.336 32-32 32zM629.376 394.624c-17.664 0-32-14.336-32-32V192c0-17.664 14.336-32 32-32s32 14.336 32 32v106.624H768c17.664 0 32 14.336 32 32s-14.336 32-32 32H629.376zM768 832c-17.664 0-32-14.336-32-32V693.376H629.376c-17.664 0-32-14.336-32-32s14.336-32 32-32H800c17.664 0 32 14.336 32 32v138.624c0 17.664-14.336 32-32 32zM362.624 832c-17.664 0-32-14.336-32-32V661.376H224c-17.664 0-32-14.336-32-32s14.336-32 32-32h138.624c17.664 0 32 14.336 32 32V800c0 17.664-14.336 32-32 32z" fill="currentColor"></path></svg>
